<svg xmlns="http://www.w3.org/2000/svg"><defs><font id="HoratioD-Medi" horiz-adv-x="500"><font-face font-family="Horatio D" font-weight="500" panose-1="2 0 6 6 3 0 0 2 0 3" ascent="800" descent="-200" x-height="427" cap-height="667" bbox="-137 -244 1094 898" underline-thickness="93" underline-position="-258" unicode-range="U+0005-2122"/><glyph glyph-name=".notdef" horiz-adv-x="250"/><glyph glyph-name=".null" horiz-adv-x="0"/><glyph glyph-name="nonmarkingreturn"/><glyph glyph-name="breve" d="M317 616q-4-24-23-40t-44-16-44.5 16-23.5 40h-73q0-28 11-52t30-41.5 44.5-27.5 55.5-10q29 0 54.5 10t44.5 27.5 30.5 41.5 11.5 52h-74z"/><glyph glyph-name="dotaccent" d="M249 609q-23 0-40-17.5T192 550t16-40.5 40-16.5 42 17 18 40q0 25-17 42t-42 17z"/><glyph glyph-name="ring" d="M250 658q-38 0-64.5-26.5T159 567t26.5-64.5T250 476t64.5 26.5T341 566q0 39-26.5 65.5T250 658zm0-47q19 0 31.5-12.5T294 567q0-18-13-31t-31-13-31 13-13 31 13 31 31 13z"/><glyph glyph-name="hungarumlaut" d="M128 478l65-5 35 153h-91zm143 0l65-5 36 153h-91z"/><glyph glyph-name="ogonek" d="M231 0q-29-23-41.5-44T177-90q0-37 25.5-57.5T273-168q17 0 28 2t23 7v52q-23-8-37-8-21 0-34.5 11.5T239-73t14 36 46 37h-68z"/><glyph glyph-name="caron" d="M102 571l105-77q23-17 42-17 23 0 49 19l100 75-56 53-92-64-91 64z"/><glyph glyph-name="dotlessi" horiz-adv-x="211" d="M155 0v427H57V0h98z"/><glyph glyph-name="fraction" horiz-adv-x="115" d="M-62 0l313 667h-76L-137 0h75z"/><glyph glyph-name="fi" horiz-adv-x="477" d="M168 0v333h86v94h-86v69q0 44 16 60t60 16h11v95h-9q-66 0-102-21-41-23-57.5-59.5T70 485v-58H1v-94h69V0h98zm252 0v427h-98V0h98zm-49 613q-25 0-43-18t-18-43 17.5-43 42.5-18 43.5 18 18.5 43q0 26-17.5 43.5T371 613z"/><glyph glyph-name="fl" horiz-adv-x="476" d="M168 0v333h86v94h-86v69q0 44 16 60t60 16h11v95h-9q-66 0-102-21-41-23-57.5-59.5T70 485v-58H1v-94h69V0h98zm251 0v667h-98V0h98z"/><glyph glyph-name="Lslash" horiz-adv-x="396" d="M74 353l-53-41V209l53 41V104q0-35 4.5-52T97 22t31.5-17.5T178 0h201v103H180v215l102 78v102l-102-77v246H74V353z"/><glyph glyph-name="lslash" horiz-adv-x="211" d="M155 345l46 36v95l-46-36v227H57V377l-47-35v-95l47 35V0h98v345z"/><glyph glyph-name="Zcaron" horiz-adv-x="454" d="M432 0v103H147l275 437q19 30 19 57 0 20-9.5 36.5T406 658q-11 5-25 7t-40 2H33V564h276L26 115q-6-9-9.5-22T13 69q0-33 22-51T98 0h334zM64 826l118-87q23-17 44-17 23 0 50 20l113 84-57 54-105-72-105 72z"/><glyph glyph-name="zcaron" horiz-adv-x="336" d="M312 0v94H145l153 213q13 17 18.5 31t5.5 27q0 17-9.5 32T289 419q-10 5-22 6.5t-35 1.5H31v-94h166L42 119q-10-14-16.5-29T19 64q0-13 6-26t16-22Q52 7 66 3.5T103 0h209zM20 571l105-77q23-17 42-17 23 0 49 19l100 75-56 53-92-64-91 64z"/><glyph glyph-name="space" horiz-adv-x="250"/><glyph glyph-name="space" horiz-adv-x="250"/><glyph glyph-name="exclam" unicode="!" horiz-adv-x="257" d="M181 165v502H75V165h106zm-53-41q-26 0-45.5-19.5T63 59q0-28 19-47t46-19q28 0 47 19t19 45q0 29-18.5 48T128 124z"/><glyph glyph-name="quotedbl" unicode="&quot;" horiz-adv-x="308" d="M188 466h66l8 201h-82zm-133 0h65l8 201H47z"/><glyph glyph-name="numbersign" unicode="#" horiz-adv-x="565" d="M393 203h97l10 72h-97l17 117h97l10 72h-97l28 198h-73l-28-198H240l28 198h-73l-27-198H75l-10-72h93l-17-117H48l-10-72h93L103 5h73l28 198h117L293 5h72zm-46 189l-16-117H214l16 117h117z"/><glyph glyph-name="dollar" unicode="$" horiz-adv-x="494" d="M206 754v-84q-75-19-113.5-69.5T54 472t42-123q10-11 20-19t23.5-14.5T171 302t43-14q66-19 92.5-40.5T333 191q0-21-8.5-39t-23-31.5-34.5-21-43-7.5q-32 0-74.5 11T49 137V26q25-8 41-13t31-8 33-5.5T201-7v-92h78v97q75 14 117.5 67T439 196q0 73-38 117t-123 68q-36 11-53 17t-27 12q-42 25-42 71 0 40 29 67t71 27q32 0 69-8.5t72-22.5v109q-22 5-37 8.5t-27 5.5-23.5 4-25.5 4v79h-78z"/><glyph glyph-name="percent" unicode="%" horiz-adv-x="802" d="M41 415q0-56 22-90 19-30 52.5-47.5T187 260q34 0 64.5 13.5T303 313q17 19 23 41.5t6 60.5v92q0 22-1 37.5t-3.5 27.5-6.5 21-11 19q-19 30-52 46.5T187 675q-69 0-113-49-18-20-25.5-46.5T41 510v-95zm216-11q0-36-18-55.5T187 329q-32 0-51.5 20.5T116 402v119q0 85 70 85 71 0 71-84V404zM282 0l313 667h-76L207 0h75zm187 148q0-56 22-90 20-30 53-47.5T615-7q34 0 64.5 13.5T731 46q17 19 23 41.5t6 60.5v92q0 44-4.5 65T738 346q-20 29-52.5 45.5T615 408q-69 0-113-49-18-20-25.5-46.5T469 243v-95zm216-11q0-36-18-55.5T615 62q-32 0-51.5 20.5T544 135v120q0 84 70 84 71 0 71-84V137z"/><glyph glyph-name="ampersand" unicode="&amp;" horiz-adv-x="508" d="M501 0l-68 99q38 40 54 94.5T501 334H397q1-52-5-85.5T372 186l-97 137q31 22 45 33t25 22q53 56 53 130 0 35-12.5 64.5t-34 51T300 657t-66 12q-38 0-69.5-11.5t-54-32-35-49.5T63 513q0-33 14.5-68t46.5-80Q20 302 20 187q0-42 15.5-78t43-61.5 65.5-40T227-7q39 0 73 11t59 31l23-35h119zM222 398q-24 30-40 61.5T166 508q0 28 20 47.5t48 19.5q29 0 46.5-20.5T298 502q0-15-3.5-28T282 449t-23.5-24.5T222 398zm80-286q-19-14-35.5-20T229 86t-40 8.5-33 23-22 34-8 41.5q0 26 12.5 47.5T181 285z"/><glyph glyph-name="quotesingle" unicode="'" horiz-adv-x="175" d="M55 466h65l8 201H47z"/><glyph glyph-name="parenleft" unicode="(" horiz-adv-x="292" d="M248-83q-16 28-26.5 46.5t-18 32T191 20t-11 24q-28 65-43.5 142T121 335q0 67 14 140t39 136q7 17 12 29t12.5 26 19 33 30.5 51h-67q-37-38-66-84.5t-49.5-99T34 457 23 343q0-61 11.5-123T67 102 117-2t64-81h67z"/><glyph glyph-name="parenright" unicode=")" horiz-adv-x="292" d="M43 750q16-27 26.5-45.5t18-32 12.5-25 11-24.5q28-65 43.5-142T170 332q0-67-14-140T117 56q-7-17-12-29T92.5 1t-19-33.5T43-83h67q37 37 66 84t49.5 99.5T257 210t11 114q0 61-11.5 122.5t-32.5 118T174 669t-64 81H43z"/><glyph glyph-name="asterisk" unicode="*" horiz-adv-x="425" d="M241 667h-58V549L70 586l-17-55 112-37-70-96 47-34 70 96 70-96 47 34-70 96 112 37-18 55-112-37v118z"/><glyph glyph-name="plus" unicode="+" horiz-adv-x="494" d="M299 385v103H196V385H93V282h103V179h103v103h103v103H299z"/><glyph glyph-name="comma" unicode="," horiz-adv-x="237" d="M101-89l65 99q11 17 15 28t4 25q0 29-18 47.5T120 129t-48-19-19-48q0-23 12-39T98 1L70-89h31z"/><glyph glyph-name="hyphen" unicode="-" horiz-adv-x="174" d="M174 177v74H0v-74h174z"/><glyph glyph-name="period" unicode="." horiz-adv-x="237" d="M118 124q-26 0-45.5-19.5T53 59q0-28 19-47t46-19q28 0 47 19t19 45q0 29-18.5 48T118 124z"/><glyph glyph-name="slash" unicode="/" horiz-adv-x="373" d="M13 0h87l260 667h-88z"/><glyph glyph-name="zero" unicode="0" horiz-adv-x="494" d="M29 246q0-50 7.5-86T61 95q29-51 79-79.5T248-13q53 0 98.5 23T423 75q12 16 20 32.5t13.5 36.5 7.5 45 2 57v156q0 36-1.5 62t-5 45.5-9.5 35-16 31.5q-29 49-78 76.5T249 680q-104 0-170-81-27-32-38.5-77T29 406V246zm333-19q0-54-18-84-14-23-40-36.5T249 93q-51 0-83 36t-32 95v202q0 72 29 110t84 38q59 0 90-43 14-20 19.5-42t5.5-63V227z"/><glyph glyph-name="one" unicode="1" horiz-adv-x="228" d="M194 0v555q0 33-4.5 55t-16 34.5-31 17.5-49.5 5H16V564h72V0h106z"/><glyph glyph-name="two" unicode="2" horiz-adv-x="428" d="M401 0v103H138l189 200q24 25 40.5 47t26.5 43.5 14.5 43T413 483q0 42-15.5 78t-42 62.5T293 665t-78 15-79-15.5T70 619q-26-27-41.5-63T13 487v-12h106q1 45 28 73.5t70 28.5q38 0 64-27.5t26-67.5q0-25-16.5-55.5T243 364L28 140Q0 112 0 78q0-35 25-56.5T93 0h308z"/><glyph glyph-name="three" unicode="3" horiz-adv-x="441" d="M22 486h106q2 41 25.5 66t61.5 25q18 0 34-7t27.5-19.5 18.5-29 7-34.5q0-38-22-61t-61-28q-49-7-49-55 0-23 11.5-35.5T220 290t40-11 26-18q28-30 28-70 0-21-7.5-39.5t-20.5-32T255.5 98 218 90q-42 0-69.5 29.5T119 195H13q2-36 9-60.5T43 87q28-47 74-73.5T217-13q42 0 78.5 16.5T360 48t44 65.5 16 79.5q0 88-69 153 31 36 44 68t13 71q0 41-15 76.5t-41 62-61.5 41.5-76.5 15q-46 0-84-19t-66-54q-20-25-31-54.5T22 497v-11z"/><glyph glyph-name="four" unicode="4" horiz-adv-x="454" d="M394 0v148h55v103h-55v416H293L27 285q-12-17-17.5-31.5T4 222q0-35 22.5-54.5T91 148h197V0h106zM288 251H121l167 241V251z"/><glyph glyph-name="five" unicode="5" horiz-adv-x="468" d="M412 564v103H44V434q0-32 2-45t8-24q10-19 30-27.5t55-8.5q36 0 58-.5t35.5-1.5 22.5-3 20-5q33-11 52-39t19-67q0-26-9-48.5t-24.5-39-36.5-26-45-9.5q-48 0-77.5 32T116 212H11q0-48 17.5-89T76 51.5 146 4t87-17q46 0 86 18t69.5 49 46.5 73 17 90q0 59-29 109.5T345 404q-29 15-68.5 21.5T173 432h-23v132h262z"/><glyph glyph-name="six" unicode="6" horiz-adv-x="494" d="M340 667H219L49 333q-14-25-22.5-60.5T18 210q0-45 18.5-85t50-70T160 7.5 249-10q49 0 91 17.5T413 56t49 72.5 18 89.5q0 46-16.5 86.5T418 375t-68 47.5-83 17.5q-12 0-20.5-1t-22.5-3zm-91-325q26 0 48.5-10t39.5-27 27-40 10-50q0-25-10-47.5t-27-39-40-26-49-9.5-48.5 9.5T160 129t-26.5 40-9.5 49 9.5 48.5T160 306t40 26.5 49 9.5z"/><glyph glyph-name="seven" unicode="7" horiz-adv-x="428" d="M146 0l254 522q10 20 14 33.5t4 27.5q0 31-19 55-13 16-32 22.5t-52 6.5H8V564h293L24 0h122z"/><glyph glyph-name="eight" unicode="8" horiz-adv-x="454" d="M356 357q34 32 48.5 62.5T419 490q0 39-15 72.5t-41 59-61 40-75 14.5q-41 0-76-14.5T90 622t-41-59-15-73q0-42 14-71.5T96 357q-41-35-60-72.5T17 200q0-44 16.5-82t45-66.5 67-44.5T228-9q43 0 81 16.5t66.5 45 45 66T437 199q0 98-81 158zM228 573q36 0 60.5-25t24.5-62q0-35-24.5-59.5T229 402q-37 0-63 25t-26 61 25 60.5 63 24.5zm0-271q44 0 73.5-30t29.5-75q0-44-29.5-73.5T228 94q-23 0-42 8t-33 21.5-22 32.5-8 41q0 45 30 75t75 30z"/><glyph glyph-name="nine" unicode="9" horiz-adv-x="494" d="M154 0h121l171 334q14 27 22.5 61.5T477 457q0 45-18.5 85t-50 70-73.5 47.5-89 17.5q-49 0-91.5-17.5T81 611t-49-72.5T14 449q0-47 16.5-87.5T76 291t68-47 83-17q12 0 21 1t22 3zm93 574q26 0 48.5-9.5T335 538t26.5-40 9.5-49-10-48.5-27-39.5-39.5-26.5T246 325t-49 10-40 27-27 40-10 50q0 25 10 47.5t27 39 40.5 26T247 574z"/><glyph glyph-name="colon" unicode=":" horiz-adv-x="237" d="M118 124q-26 0-45.5-19.5T53 59q0-28 19-47t46-19q28 0 47 19t19 45q0 29-18.5 48T118 124zm0 293q-26 0-45.5-19.5T53 352q0-28 19-47t46-19q28 0 47 19t19 45q0 29-18.5 48T118 417z"/><glyph glyph-name="semicolon" unicode=";" horiz-adv-x="237" d="M101-89l65 99q11 17 15 28t4 25q0 29-18 47.5T120 129t-48-19-19-48q0-23 12-39T98 1L70-89h31zm18 506q-26 0-45.5-19.5T54 352q0-28 19-47t46-19q28 0 47 19t19 45q0 29-18.5 48T119 417z"/><glyph glyph-name="less" unicode="&lt;" d="M466 591L33 378v-89L466 75v105L145 333l321 154v104z"/><glyph glyph-name="equal" unicode="=" horiz-adv-x="494" d="M402 305H93V202h309v103zm0 160H93V362h309v103z"/><glyph glyph-name="greater" unicode="&gt;" d="M34 591V487l321-154L34 180V75l433 214v89z"/><glyph glyph-name="question" unicode="?" horiz-adv-x="455" d="M275 166v119q28 11 45.5 20.5T354 329q33 28 51.5 66t18.5 80q0 41-16 77.5T364.5 616t-64 43-78.5 16q-41 0-77.5-16T81 615.5 38.5 551 23 473h106q1 44 26.5 71t67.5 27q41 0 68-28t27-70q0-34-19-56t-63-37q-26-8-36-14t-18-17-10.5-21.5T169 292V166h106zm-52-42q-26 0-45.5-19.5T158 59q0-28 19-47t46-19q28 0 47 19t19 45q0 29-18.5 48T223 124z"/><glyph glyph-name="at" unicode="@" horiz-adv-x="739" d="M542 217l12 100q2 17 3.5 32t1.5 24q0 33-12 61.5T513 484t-51.5 32.5T397 528q-42 0-78.5-15.5t-63.5-42-42.5-62.5-15.5-77q0-36 12-66t33-51.5 50-34 64-12.5q40 0 76 16.5t64 48.5l-3-25q-1-3-1-8-1-12 7.5-19t23.5-7h25q32 0 54 6t40 20q29 23 45 64t16 94q0 68-25 126.5t-68.5 102-103 68T379 678q-71 0-133.5-27t-109-74T63 467.5 36 333q0-71 27-134t73.5-109.5T246 16t134-27q87 0 165 43 10 5 16.5 9t13 9.5 14 13L608 83l-36 35q-35-38-82.5-57.5T386 41q-62 0-116 22.5t-94 62-63 92.5-23 114 22.5 114 61.5 93 91.5 63T378 625q57 0 106.5-21t86-57.5 57.5-86T649 354q0-29-7.5-57.5T621 249q-12-18-25.5-25t-36.5-7h-17zM389 472q51 0 82-30t31-79q0-29-11.5-54.5T460 264t-44.5-30.5T362 222q-48 0-78 31.5T254 333q0 29 10.5 54.5t29 44 43 29.5 52.5 11z"/><glyph glyph-name="A" unicode="A" horiz-adv-x="545" d="M530 0L349 610q-11 37-29 53.5T273 680q-57 0-77-69L15 0h109l35 126h225L421 0h109zM355 229H188l81 293z"/><glyph glyph-name="B" unicode="B" horiz-adv-x="508" d="M170 667q-50 0-73-23.5T74 569V97q0-53 22-75t76-22h67q49 0 90.5 16t72 44 47.5 66.5 17 84.5q0 40-14 74.5T412 343q-10 8-20.5 16T363 378q31 32 44 58.5t13 59.5q0 34-16.5 69T360 624t-57 33.5-79 9.5h-54zm10-250v147h38q25 0 39.5-3.5T284 549q14-10 22-26t8-33q0-35-24.5-54T219 417h-39zm0-314v211h50q63 0 96.5-27t33.5-78q0-28-11-51.5T318 121q-16-10-35-14t-51-4h-52z"/><glyph glyph-name="C" unicode="C" horiz-adv-x="458" d="M431 103q-10-1-19-1h-11q-30 0-53 2t-42.5 7-36 12.5T236 143q-48 33-74.5 82T135 331q0 39 11.5 74t32.5 64 50.5 50.5T295 553q11 3 20.5 5.5T337 562t29 1h43l22 1v103q-45 0-74.5-1t-51-3.5T267 655t-37-13q-46-19-83-50.5t-63.5-72T43 431t-14-99q0-91 43-166.5T191 45q25-14 45.5-23t46-13.5T343 2t88-2v103z"/><glyph glyph-name="D" unicode="D" horiz-adv-x="564" d="M74 104q0-57 25-81t85-24q65 0 115.5 15T396 62q66 48 102.5 120T535 335t-36 151-101 118q-47 34-97.5 48.5T179 667q-59 0-82-23.5T74 561V104zm106-1v461h23q47 0 88-18t72-49 48.5-73 17.5-89q0-50-17.5-92t-49-73.5-74-49T196 103h-16z"/><glyph glyph-name="E" unicode="E" horiz-adv-x="432" d="M380 0v103H180v191h182v103H180v167h200v103H168q-43 0-69-23-8-7-13-13.5T78.5 615 75 593.5 74 563V100q0-56 22-78t77-22h207z"/><glyph glyph-name="F" unicode="F" horiz-adv-x="415" d="M180 0v294h182v103H180v167h199v103H168q-48 0-72-25-13-13-17.5-28.5T74 566V0h106z"/><glyph glyph-name="G" unicode="G" horiz-adv-x="740" d="M374 364V261h226q-25-79-86-125T374 90q-49 0-92.5 19.5t-76 52.5-51.5 77-19 94q0 51 18.5 95.5T204 506t75 52 93 19q127 0 203-110l88 56q-19 34-50 62.5T543 635t-82.5 33-87.5 12q-72 0-134.5-27t-109-74T56 469 29 334t27-135 73.5-110T239 14.5 373-13q78 0 149.5 34.5T642 117q15 19 28 42t22.5 46.5 15 46T713 293q0 38-20.5 54.5T624 364H374z"/><glyph glyph-name="H" unicode="H" horiz-adv-x="634" d="M560 0v667H454V397H180v270H74V0h106v294h274V0h106z"/><glyph glyph-name="I" unicode="I" horiz-adv-x="254" d="M180 0v667H74V0h106z"/><glyph glyph-name="J" unicode="J" horiz-adv-x="267" d="M200 667H94V190q0-20-4.5-37.5T78 125q-5-6-10.5-10t-13-6.5-18-3.5-26.5-2H0V0q30 1 50 2.5T84.5 7t26 8.5T134 30q36 26 51 62.5t15 99.5v475z"/><glyph glyph-name="K" unicode="K" horiz-adv-x="516" d="M524 0L284 343l207 324H370L202 397q-8-13-13-29.5t-5-29.5q0-24 17-50L393 0h131zM180 0v667H74V0h106z"/><glyph glyph-name="L" unicode="L" horiz-adv-x="396" d="M379 0v103H180v564H74V104q0-35 4.5-52T97 22t31.5-17.5T178 0h201z"/><glyph glyph-name="M" unicode="M" horiz-adv-x="754" d="M680 0v577q0 45-20 70t-55 25q-55 0-77-64L374 165 229 595q-27 79-81 79-35 0-58-29-9-11-12.5-26T74 577V0h99v457L311 48q19-53 63-53 45 0 65 59l142 411V0h99z"/><glyph glyph-name="N" unicode="N" horiz-adv-x="629" d="M555 667h-99V169L214 622q-15 29-30.5 41T145 675q-32 0-51.5-22.5T74 592V0h99v487L417 27q20-38 61-38 35 0 56 23t21 61v594z"/><glyph glyph-name="O" unicode="O" horiz-adv-x="746" d="M376 680q-73 0-136-27t-110-73.5T56 470 29 335t27.5-135T131 89.5t110-75T375-13q69 0 131.5 27.5T616 89t74.5 109T718 329q0 73-26.5 137.5t-73 111.5T510 652.5 376 680zm0-103q41 0 81.5-16t72.5-44q82-74 82-186 0-48-19-92t-52-77-76-52.5T374 90q-49 0-92.5 19.5t-76 52.5-51.5 77-19 94q0 51 19 95.5t51.5 77.5 76.5 52 94 19z"/><glyph glyph-name="P" unicode="P" horiz-adv-x="439" d="M180 0v266h22q47 0 87 15t69 42 45 64 16 81q0 41-16.5 78T357 612q-16 15-32.5 25.5t-35.5 17-41.5 9.5-50.5 3q-35 0-53.5-2.5T112 654q-20-11-29-31.5T74 567V0h106zm0 369v195q8 1 14 1h10q52 0 80.5-25.5T313 468q0-56-40-82-14-10-29.5-13.5T201 369h-21z"/><glyph glyph-name="Q" unicode="Q" horiz-adv-x="747" d="M704-14l-89 99q51 53 77.5 116.5T719 334q0 72-27 135t-74 110-110 74-135 27q-71 0-133.5-27t-109-74-74-109.5T29 337q0-72 27.5-136t75-111.5 110.5-75T377-13q42 0 78 8.5T529 24l33-38h142zM454 264H312l142-158q-20-8-38-12t-39-4q-50 0-94 19.5T206 162t-52 78-19 96q0 50 19 94t51 76.5 75.5 51.5 93.5 19 93.5-19 76-52 51-78 18.5-96q0-97-69-169z"/><glyph glyph-name="R" unicode="R" horiz-adv-x="503" d="M436 0v253q0 44-15 64.5T370 343q66 41 66 133 0 41-15 76t-41.5 60.5-63 40T237 667h-64q-55 0-77-23.5T74 561V0h106v317q6-21 20.5-29.5T245 279h51q23 0 28.5-7.5T330 235V0h106zM180 566q22 0 37-.5t25.5-1 18-2.5 15.5-5q24-9 39-33.5t15-55.5q0-34-19-56.5T260 384q-23-2-37.5-5.5t-23-8.5-13-13.5T180 335v231z"/><glyph glyph-name="S" unicode="S" horiz-adv-x="459" d="M382 658q-32 10-68 15.5t-69 5.5q-49 0-89.5-15t-70-42.5-46-65T23 474q0-38 13.5-72.5T75 344q10-10 22.5-18t29-15 38-14 50.5-14q39-10 56-16t29-14q31-19 31-63 0-47-37-75.5T197 86q-32 0-70 10.5T32 131V19Q85 2 126-6t78-8q51 0 94 15.5t73.5 43 48 66T437 195q0 144-179 187-30 7-46 11t-25.5 7-14.5 6-12 8q-16 10-24.5 27t-8.5 37q0 45 35 73.5t90 28.5q13 0 24-1t25-4.5 33-9.5 48-16v109z"/><glyph glyph-name="T" unicode="T" horiz-adv-x="393" d="M382 562v105H11V564h133V0h106v564z"/><glyph glyph-name="U" unicode="U" horiz-adv-x="612" d="M547 667H441V252q0-40-5-61t-19-43q-19-27-49-43t-63-16q-34 0-64 16.5T193 151q-12 20-17 42t-5 57v417H65V241q0-48 9-81.5T104 95q34-51 88-80t113-29q54 0 103.5 24T493 76q15 19 25.5 37.5t16.5 39 9 45 3 54.5v415z"/><glyph glyph-name="V" unicode="V" horiz-adv-x="519" d="M514 667H405L261 163 114 667H5L188 54q20-62 73-62 31 0 47 16t28 58z"/><glyph glyph-name="W" unicode="W" horiz-adv-x="741" d="M719 667H613l-91-498-83 435q-13 72-68 72-56 0-69-67l-85-440-92 498H22L151 54q13-61 65-61 55 0 68 65l86 403 83-404q6-31 24-47.5T521-7q57 0 73 75z"/><glyph glyph-name="X" unicode="X" horiz-adv-x="511" d="M504 0L308 349l171 318H357L249 457 136 667H13l178-318L7 0h117l125 240L379 0h125z"/><glyph glyph-name="Y" unicode="Y" horiz-adv-x="466" d="M291 0v292l171 375H353L237 410 113 667H3l182-375V0h106z"/><glyph glyph-name="Z" unicode="Z" horiz-adv-x="454" d="M432 0v103H147l275 437q19 30 19 57 0 20-9.5 36.5T406 658q-11 5-25 7t-40 2H33V564h276L26 115q-6-9-9.5-22T13 69q0-33 22-51T98 0h334z"/><glyph glyph-name="bracketleft" unicode="[" horiz-adv-x="265" d="M247 747H66V-82h181v74h-97v681h97v74z"/><glyph glyph-name="backslash" unicode="\" horiz-adv-x="373" d="M360 0L101 667H13L272 0h88z"/><glyph glyph-name="bracketright" unicode="]" horiz-adv-x="265" d="M66 747v-74h97V-8H66v-74h181v829H66z"/><glyph glyph-name="asciicircum" unicode="^" d="M121 365l128 233 129-233h96L309 669H191L25 365h96z"/><glyph glyph-name="underscore" unicode="_" d="M0-74v-93h500v93H0z"/><glyph glyph-name="grave" unicode="`" d="M305 478l-16 148h-94l42-153z"/><glyph glyph-name="a" unicode="a" horiz-adv-x="508" d="M465 0v173q0 32-1.5 55.5t-5.5 42-10.5 33.5-16.5 31q-29 45-78.5 71.5T248 433q-45 0-85.5-17.5T92 368t-47.5-70T27 213t17.5-84.5T91 59t68-47.5T242-6q66 0 125 45V0h98zM250 337q26 0 48-9.5t38.5-27T362 260t9-50q0-26-9.5-47.5t-26-38-39-25.5-47.5-9q-26 0-49 9.5t-39.5 26-26 39T125 213t9.5 49 26.5 39.5 40 26 49 9.5z"/><glyph glyph-name="b" unicode="b" horiz-adv-x="508" d="M43 667V254q0-32 1.5-55.5t5.5-42T60.5 123 77 92q29-45 78.5-71.5T260-6q45 0 85.5 17.5T416 59t47.5 70 17.5 85-17.5 84.5T417 368t-68.5 47.5T266 433q-67 0-125-45v279H43zm216-330q26 0 49-9.5t39.5-26 26-39T383 214t-9.5-49-26.5-39.5-40-26-49-9.5-48 9.5-38.5 27T146 167t-9 50q0 25 9.5 47t26 38.5T211 328t48 9z"/><glyph glyph-name="c" unicode="c" horiz-adv-x="344" d="M323 0v95h-32q-22 0-37 .5t-26 2-20.5 5T188 111q-29 13-46 41t-17 60q0 40 23 70.5t60 41.5q9 3 19 4.5t23 2 30.5 1 42.5.5v95h-40q-27 0-45-.5t-32.5-2.5-26.5-5.5-25-9.5q-58-24-92.5-78T27 211q0-51 21.5-94T111 42q16-12 31.5-20.5t34-13 42-6.5T275 0h48z"/><glyph glyph-name="d" unicode="d" horiz-adv-x="508" d="M465 667h-98V388q-59 45-125 45-44 0-83-17.5T91 368t-46.5-69.5T27 214t17.5-85T92 59t70.5-47.5T248-6q55 0 104.5 26.5T431 92q10 16 16.5 31t10.5 33.5 5.5 42T465 254v413zM249 337q26 0 48.5-9.5t38.5-26 25-39 9-49.5q0-26-9.5-48t-26-39T296 99.5 249 90q-26 0-48.5 9.5T161 126t-26.5 39.5T125 214t9.5 48.5 26 39 39 26T249 337z"/><glyph glyph-name="e" unicode="e" horiz-adv-x="483" d="M346 138q-39-48-98-48-41 0-72 22t-45 60h218q36 0 51 3t29 14q28 22 28 60 0 27-14.5 58.5T404 365q-32 33-72 50.5T245 433q-45 0-84.5-17T91 369t-47-70-17-85 17.5-85T92 59t69.5-47.5T246-6q34 0 66 10.5t59 29 47 45 32 59.5H346zM133 259q15 37 45.5 57.5T248 337t70-21.5 43-56.5H133z"/><glyph glyph-name="f" unicode="f" horiz-adv-x="265" d="M168 0v333h86v94h-86v69q0 44 16 60t60 16h11v95h-9q-66 0-102-21-41-23-57.5-59.5T70 485v-58H1v-94h69V0h98z"/><glyph glyph-name="g" unicode="g" horiz-adv-x="509" d="M63-38q0-44 15-81.5t42-65 64-43 80-15.5q48 0 90 20.5t70 56.5q23 31 32.5 64.5T466-13v193q0 51-9.5 89.5T427 337q-31 45-78 70.5T249 433q-46 0-86.5-17.5t-70.5-47T44.5 299 27 214t17.5-85 47-70T161 11.5 246-6q68 0 122 42V-7q0-62-16-90-13-23-38-37t-52-14q-44 0-72 30t-31 80H63zm186 375q25 0 47.5-10t39-27 26-40.5T371 209q0-24-9.5-46T335 125t-39.5-25.5T248 90q-26 0-48.5 9.5t-39 26.5-26 39.5T125 215q0 26 9.5 48.5t26 39 39 25.5 49.5 9z"/><glyph glyph-name="h" unicode="h" horiz-adv-x="469" d="M417 0v231q0 47-10 80.5T375 371q-24 29-58.5 45.5T244 433q-23 0-44.5-5.5T155 409v258H57V0h98v221q0 30 4 49t13 33q11 15 29.5 24.5T240 337q19 0 36.5-9.5T304 303q8-14 11.5-32t3.5-51V0h98z"/><glyph glyph-name="i" unicode="i" horiz-adv-x="213" d="M155 0v427H57V0h98zm-49 613q-25 0-43-18t-18-43 17.5-43 42.5-18 43.5 18 18.5 43q0 26-17.5 43.5T106 613z"/><glyph glyph-name="j" unicode="j" horiz-adv-x="212" d="M155 427H57V-45q0-50-18-71t-60-21h-10v-95q6-1 12-1h7q78 0 126 50 12 13 20 26t12.5 29.5T153-90t2 51v466zm-49 186q-25 0-43-18t-18-43 17.5-43 42.5-18 43.5 18 18.5 43q0 26-17.5 43.5T106 613z"/><glyph glyph-name="k" unicode="k" horiz-adv-x="416" d="M416 0L253 227l148 200H282l-81-116q-15-24-23.5-37.5t-12.5-22-4.5-13.5-.5-13q0-9 1.5-17t5.5-17 11.5-21 19.5-30L294 0h122zM155 0v667H57V0h98z"/><glyph glyph-name="l" unicode="l" horiz-adv-x="211" d="M155 0v667H57V0h98z"/><glyph glyph-name="m" unicode="m" horiz-adv-x="624" d="M572 0v256q0 42-6 66t-20 46q-21 31-54.5 48T418 433q-68 0-107-41-45 41-107 41-41 0-74.5-18T76 365q-7-11-11.5-21.5T57 320t-4-28.5-1-37.5V0h98v264q0 73 56 73 29 0 43-18.5t14-59.5V0h98v261q0 76 58 76 55 0 55-78V0h98z"/><glyph glyph-name="n" unicode="n" horiz-adv-x="464" d="M412 0v235q0 49-8.5 78T372 369q-26 31-62 47.5T232 433t-78.5-17T92 367q-21-26-30.5-55T52 242V0h98v214q0 36 3.5 54.5T166 302q10 16 28.5 25.5T233 337t38-10 27-26 12.5-36.5T314 207V0h98z"/><glyph glyph-name="o" unicode="o" horiz-adv-x="496" d="M249 433q-46 0-86.5-17T92 369t-47.5-70.5T27 212q0-45 17.5-84.5T92 58t70-47 85-17q46 0 86.5 17t71 46 48 68 17.5 83q0 47-17 88t-47 71.5-70.5 48T249 433zm0-96q25 0 47.5-10t39.5-27 26.5-39.5T372 212q0-25-10-47t-26.5-38.5T296 100t-48-10q-26 0-48 9.5T161 126t-26.5 39-9.5 48 10 48.5 26.5 39.5 39 26.5T249 337z"/><glyph glyph-name="p" unicode="p" horiz-adv-x="508" d="M43-239h98V39Q199-6 266-6q43 0 82.5 17.5T417 59t46.5 69.5T481 213t-17.5 85-47.5 70-70.5 47.5T260 433q-55 0-104.5-26.5T77 335q-10-16-16.5-31T50 270.5t-5.5-42T43 173v-412zm216 576q26 0 48.5-9.5T347 301t26.5-39.5T383 213t-9.5-48.5-26-39-39.5-26-49-9.5-48.5 9-38.5 25.5-25 39.5-9 50q0 25 9.5 47.5t26 39.5 38.5 26.5 47 9.5z"/><glyph glyph-name="q" unicode="q" horiz-adv-x="508" d="M465-239v412q0 32-1.5 55.5t-5.5 42-10.5 33.5-16.5 31q-29 45-78.5 71.5T248 433q-45 0-85.5-17.5T92 368t-47.5-70T27 213t17.5-84.5T91 59t68-47.5T242-6q66 0 125 45v-278h98zM250 337q26 0 48-9.5t38.5-27T362 260t9-50q0-26-9.5-47.5t-26-38-39-25.5-47.5-9q-26 0-49 9.5t-39.5 26-26 39T125 213t9.5 49 26.5 39.5 40 26 49 9.5z"/><glyph glyph-name="r" unicode="r" horiz-adv-x="262" d="M150 0v225q0 31 4.5 51t15 32.5T198 327t46 8v95q-8 1-14 1h-10q-81 0-124.5-46T52 251V0h98z"/><glyph glyph-name="s" unicode="s" horiz-adv-x="363" d="M302 416q-34 11-59 15.5t-53 4.5q-34 0-62.5-10t-49-28-32-43T35 300q0-49 29.5-79t95.5-48q23-6 37-11.5t22-10.5 10.5-12 2.5-16q0-20-16.5-31.5T169 80q-53 0-129 36V16Q75 3 105-3t62-6q36 0 65.5 10T283 30t32.5 44.5T327 132q0 26-9.5 48.5T291 219q-11 11-28 19.5T218 255q-20 6-31 9t-17 5-10 3.5-9 3.5q-21 9-21 28 0 21 17.5 33t47.5 12q26 0 54-8t53-23v98z"/><glyph glyph-name="t" unicode="t" horiz-adv-x="283" d="M258 0v95h-7q-47 1-65 20t-18 69v149h90v94h-90v150H70V427H-3v-94h73V186q0-47 8-76.5T104 57Q150 0 242 0h16z"/><glyph glyph-name="u" unicode="u" horiz-adv-x="464" d="M52 427V192q0-49 8.5-78T92 58q26-31 62-47.5T232-6t78.5 17T372 60q21 26 30.5 55t9.5 70v242h-98V213q0-36-3.5-54.5T298 125q-10-16-28.5-25.5T231 90t-38 10-27 26-12.5 36.5T150 220v207H52z"/><glyph glyph-name="v" unicode="v" horiz-adv-x="383" d="M372 427h-95l-87-285-80 285H10L134 51q11-33 23.5-45.5T193-7q24 0 38 14.5T256 58z"/><glyph glyph-name="w" unicode="w" horiz-adv-x="574" d="M551 427h-98l-61-286-45 237q-11 60-59 60t-60-61l-46-229-67 279H23L131 47q8-29 20-41.5T184-7q44 0 56 59l47 231 41-216q14-74 64-74 23 0 36.5 15T453 61z"/><glyph glyph-name="x" unicode="x" horiz-adv-x="366" d="M362 0L236 220l117 207H239l-60-120-68 120H3l121-207L3 0h108l68 135L254 0h108z"/><glyph glyph-name="y" unicode="y" horiz-adv-x="477" d="M421 427h-98V192q0-48-21.5-75T241 90q-40 0-61.5 27.5T158 196v231H60V200q0-82 33-130 26-36 64-56t83-20q25 0 43.5 5T325 17v-55q0-22-3.5-39.5T313-105q-11-20-32-32t-45-12q-39 0-62 24.5T149-55H52v-11q0-36 14.5-68.5t40-57 59-38.5 71.5-14q86 0 143 69 41 50 41 140v462z"/><glyph glyph-name="z" unicode="z" horiz-adv-x="336" d="M312 0v94H145l153 213q13 17 18.5 31t5.5 27q0 17-9.5 32T289 419q-10 5-22 6.5t-35 1.5H31v-94h166L42 119q-10-14-16.5-29T19 64q0-13 6-26t16-22Q52 7 66 3.5T103 0h209z"/><glyph glyph-name="braceleft" unicode="{" horiz-adv-x="267" d="M156 583q0 26 4 42.5t15 26.5 29.5 14 47.5 4v77h-24q-54 0-82-8.5T99 709q-28-32-28-99V456q0-40-13-60.5T14 367v-64q32-8 44.5-29T71 210V68q0-65 19-97 18-29 47.5-40T226-80h26v72q-29 0-48 4t-29.5 14T160 37.5 156 82v133q0 48-12 74t-44 44q32 18 44 43t12 73v134z"/><glyph glyph-name="bar" unicode="|" d="M197 667v-834h105v834H197z"/><glyph glyph-name="braceright" unicode="}" horiz-adv-x="267" d="M110 82q0-27-4-44.5T91.5 10 62-4 14-8v-72h26q55 0 82.5 9T168-39q14 17 20.5 42.5T195 68v142q0 43 12.5 64t44.5 29v64q-31 8-44 28.5T195 456v154q0 59-20 89-18 27-48.5 37.5T38 747H14v-77q29 0 47.5-4T91 652t15-26.5 4-42.5V449q0-48 12-73t44-43q-32-18-44-44t-12-74V82z"/><glyph glyph-name="asciitilde" unicode="~" horiz-adv-x="667" d="M148 570q22 39 40 54.5t42 15.5q9 0 16.5-1t18-4.5T289 625t36-16q25-12 41.5-19t28.5-11 21-5.5 19-1.5q44 0 77.5 29t62.5 93l-54 43q-22-38-41-53.5T437 668q-8 0-15.5 1t-17.5 4.5-23.5 9.5-34.5 16q-43 20-67 28t-45 8q-45 0-78.5-29.5T94 613z"/><glyph glyph-name="exclamdown" unicode="¡" horiz-adv-x="257" d="M76 502V0h106v502H76zm53 172q-27 0-45.5-18T63 610t17.5-47.5T129 543q27 0 46 19.5t19 45.5q0 28-19 47t-46 19z"/><glyph glyph-name="cent" unicode="¢" horiz-adv-x="363" d="M261 549v80h-47v-83q-41-7-74.5-25.5t-57-46T46 411t-13-77q0-40 13.5-75.5T84 195t57-46 73-24V41h47v81h68v95h-33q-21 0-35.5.5t-26 2.5-21.5 5-20 8q-28 13-45 41t-17 60q0 40 23 71t60 41q18 5 41.5 7t73.5 2v94h-68z"/><glyph glyph-name="sterling" unicode="£" horiz-adv-x="536" d="M521 177H417q-8-87-79-87-15 0-31 3-23 4-38 6.5t-25.5 4-18 2-16.5.5h-9q-4 0-12-1 15 29 21 52.5t6 49.5q0 14-1 26t-6 38h104v105H188q-11 39-15 61.5t-4 39.5q0 22 9.5 41.5t25 34.5 37 23.5T286 585q47 0 76.5-29t36.5-82h102q-8 99-62.5 151.5T289 678q-50 0-91-14.5T128 623t-45-63.5T67 477q0-20 3-43t11-58H30V271h70q10-40 10-77 0-46-14-68T47 93V-3q24 5 39.5 8t28 4.5 24 2 26.5.5q23 0 43.5-2T253 3q28-6 44-9t26-4.5 16-1.5h16q35 0 65 14t52.5 38T508 96.5t13 70.5v10z"/><glyph glyph-name="currency" unicode="¤" horiz-adv-x="563" d="M471 217q32 52 32 113 0 33-8 61t-25 57l52 52-73 73-54-53q-30 17-56.5 24t-58.5 7q-31 0-56.5-7T168 520l-53 53-73-73 53-52q-18-29-26.5-57T60 331q0-59 33-114l-51-50 73-74 51 51q29-17 56-24t59-7 59 7.5 57 24.5l52-52 73 73zM282 455q25 0 47.5-9.5T369 419t26.5-39.5T405 331q0-25-10-47.5t-26.5-39-39.5-26-48-9.5q-26 0-48 9.5t-39 26-26.5 38.5-9.5 48 10 48.5 26.5 39.5 39 26.5T282 455z"/><glyph glyph-name="yen" unicode="¥" horiz-adv-x="466" d="M185 223V0h106v223h155v74H310l33 79h103v74h-73l89 217H353L237 370 113 667H3l95-217H19v-74h111l35-79H19v-74h166z"/><glyph glyph-name="brokenbar" unicode="¦" d="M197 667V326h105v341H197zm0-514v-320h105v320H197z"/><glyph glyph-name="section" unicode="§" horiz-adv-x="466" d="M366 651q-34 16-62 22.5t-60 6.5q-35 0-64.5-10t-51-28-34-42.5T82 547q0-35 15.5-66t43.5-52q-45-24-69.5-64T47 275q0-60 34-102t100-65q36-12 52-18.5T257 78q40-26 40-66 0-29-23-46.5T212-52q-34 0-70 10T62-12v-99q24-9 43-15.5t36-10.5 34-5.5 37-1.5q85 0 135 41T397 8q0 77-68 127 42 23 66 63t24 86q0 115-136 166-29 11-42.5 16.5T219 477q-39 27-39 59 0 25 19.5 40.5T251 592q30 0 57-7t58-24v90zM230 364q19 0 35-6.5t28-18 19-26.5 7-33q0-36-24.5-60T232 196t-62.5 24-24.5 60q0 35 25 59.5t60 24.5z"/><glyph glyph-name="dieresis" unicode="¨" d="M336 610q-25-2-40.5-17.5T280 553t17.5-41.5T339 494t40.5 16.5T396 550q0 26-17.5 44T336 610zm-176-1q-23 0-40-17.5T103 550t16-40.5 40-16.5 42 17 18 40q0 25-17 42t-42 17z"/><glyph glyph-name="copyright" unicode="©" horiz-adv-x="770" d="M390 679q-74 0-137.5-27t-111-73.5-74.5-110T40 333q0-71 27-134t74-110 110-74 135-27q71 0 134 27t109.5 74T703 199t27 134-27 134-73.5 110-108 74.5T390 679zm-1-49q59 0 111.5-23.5t91.5-64 62-94.5 23-115-23-115-62.5-94-93-63.5T385 37 271.5 60.5t-93 63.5-62.5 94-23 115q0 62 23 116.5t63 94.5 94 63 116 23zm86-414h-10q-7-1-11-1h-3q-30 0-49.5 5T365 236q-25 17-39 43.5T312 336q0 41 23 72.5t61 43.5q6 2 10 3.5t11.5 2 20.5.5h37v69h-18q-23 0-40.5-1t-31-4-25.5-7.5-24-11.5q-45-26-70-70t-25-97q0-59 30.5-105t84.5-69q11-5 20.5-8t21.5-4.5 30-2 47-.5v69z"/><glyph glyph-name="ordfeminine" unicode="ª" horiz-adv-x="332" d="M301 267v105q0 39-4.5 59T279 470q-19 27-50.5 43T162 529q-29 0-54.5-10.5t-45-28.5T32 447.5 21 396t11-51.5T62 302t44-28.5 54-10.5q19 0 34 4.5t38 18.5v-19h69zM163 466q30 0 50.5-20.5T234 394q0-29-20.5-48.5T162 326q-30 0-51 20.5T90 396t21 49.5 52 20.5z"/><glyph glyph-name="guillemotleft" unicode="«" horiz-adv-x="482" d="M160 406L20 217 163 25l71 55-101 137 101 136zm206 3L227 218 370 28l72 55-101 135 98 137z"/><glyph glyph-name="logicalnot" unicode="¬" d="M364 0h102v282H33v-92h331V0z"/><glyph glyph-name="registered" unicode="®" horiz-adv-x="770" d="M390 679q-74 0-137.5-27t-111-73.5-74.5-110T40 333q0-71 27-134t74-110 110-74 135-27q71 0 134 27t109.5 74T703 199t27 134-27 134-73.5 110-108 74.5T390 679zm-1-49q59 0 111.5-23.5t91.5-64 62-94.5 23-115-23-115-62.5-94-93-63.5T385 37 271.5 60.5t-93 63.5-62.5 94-23 115q0 62 23 116.5t63 94.5 94 63 116 23zm102-483v145q0 41-28 52 28 27 28 71 0 24-8.5 44.5t-24 35.5-37 23.5T375 527h-35q-33 0-47-15t-14-50V147h71v160q13-7 30-7h28q8 0 10.5-3.5T421 282V147h70zM350 459q20 0 28.5-1t16.5-4q11-4 18.5-16t7.5-27q0-17-9-28t-24-13q-20-2-25.5-3.5T350 360v99z"/><glyph glyph-name="macron" unicode="¯" d="M406 520v65H93v-65h313z"/><glyph glyph-name="degree" unicode="°" horiz-adv-x="383" d="M191 676q-29 0-54.5-11t-45-29.5T61 592t-11-53q0-29 11-54.5T91 440t45-30 56-11q29 0 55 11t45 29.5 30 44 11 54.5q0 28-11 53.5t-30.5 44-45 29.5-55.5 11zm0-52q18 0 34.5-7t28.5-18.5 19-27 7-33.5q0-36-26-61.5T192 451q-38 0-63.5 25.5T103 539q0 17 7 32.5t19 27 28 18.5 34 7z"/><glyph glyph-name="plusminus" unicode="±" horiz-adv-x="494" d="M299 432v102H196V432H93V329h103V226h103v103h103v103H299zm103-267H93V62h309v103z"/><glyph glyph-name="twosuperior" unicode="²" horiz-adv-x="321" d="M275 266v72H130l100 106q29 31 40.5 55t11.5 55q0 25-9.5 47T247 639t-38.5 25.5T161 674t-47.5-9.5T74 639t-27-37.5T37 557v-4q0-1 1-10h73q0 59 50 59 20 0 33.5-14.5T208 553q0-27-35-65L48 358q-18-20-18-41 0-23 16.5-37T89 266h186z"/><glyph glyph-name="threesuperior" unicode="³" horiz-adv-x="321" d="M39 558v-9h73q2 53 45 53 19 0 32-13.5t13-33.5q0-40-43-45-34-4-34-38 0-30 34-37 49-9 49-51 0-22-14.5-37.5T158 331q-16 0-29 9.5T110 366q-2 6-2.5 10.5T107 392H33q2-22 4-33t7-23q14-35 45.5-56t68.5-21q25 0 48 10t39.5 27 26.5 40 10 49q0 50-38 89 17 21 24.5 39t7.5 41q0 25-9 47t-25 38-38 25.5-47 9.5q-23 0-44.5-9t-38-24.5-26-36T39 562v-4z"/><glyph glyph-name="acute" unicode="´" d="M195 478l68-5 42 153h-94z"/><glyph glyph-name="mu" unicode="µ" horiz-adv-x="464" d="M150 427H52v-666h98V26q22-17 41-24.5T234-6q40 0 76.5 17.5T372 60q21 26 30.5 55t9.5 70v242h-98V213q0-36-3.5-54.5T298 125q-10-16-28.5-25.5T231 90t-38 10-27 26q-9 15-12.5 35.5T150 214v213z"/><glyph glyph-name="paragraph" unicode="¶" horiz-adv-x="533" d="M463-80v647q0 56-25.5 78T347 667q-86 0-133.5-3T144 654q-29-9-53.5-27.5t-42-43T21 529t-10-62q0-42 14.5-78.5T65 325t59-43 72-16h14V-80h93v667h67V-80h93z"/><glyph glyph-name="glyph133" unicode="·" horiz-adv-x="250" d="M125 280q-26 0-45.5-19.5T60 215q0-28 19-47t46-19q28 0 47 19t19 45q0 29-18.5 48T125 280z"/><glyph glyph-name="glyph133" unicode="∙" horiz-adv-x="250" d="M125 280q-26 0-45.5-19.5T60 215q0-28 19-47t46-19q28 0 47 19t19 45q0 29-18.5 48T125 280z"/><glyph glyph-name="cedilla" unicode="¸" d="M199 0v-71q36-2 48.5-9.5T260-108t-15.5-28.5T187-147v-40q30 0 45 1.5t30 6.5q23 8 37.5 27.5T314-107q0 58-66 72V0h-49z"/><glyph glyph-name="onesuperior" unicode="¹" horiz-adv-x="321" d="M206 267v329q0 42-13.5 56.5T141 667H90v-72h42V267h74z"/><glyph glyph-name="ordmasculine" unicode="º" horiz-adv-x="325" d="M163 529q-30 0-55.5-10.5t-45-28.5T32 447.5 21 395q0-27 11-51t30-42 45-28.5 55-10.5 54.5 10.5 45 28 31 41T304 393q0 28-11 53t-30 43.5-45 29-55 10.5zm0-63q30 0 51-21t21-50-21.5-49-51.5-20-51 20.5T90 396t21.5 49.5T163 466z"/><glyph glyph-name="guillemotright" unicode="»" horiz-adv-x="482" d="M322 25l140 188-143 193-71-55 101-138L248 77zm-206-3l139 191-143 190-72-55 101-135L43 76z"/><glyph glyph-name="onequarter" unicode="¼" horiz-adv-x="757" d="M206 267v329q0 42-13.5 56.5T141 667H90v-72h42V267h74zM260 0l313 667h-76L185 0h75zm436 0v86h32v72h-32v242h-68L471 175q-14-20-14-40 0-23 15-36t41-13h109V0h74zm-74 158h-80l80 115V158z"/><glyph glyph-name="onehalf" unicode="½" horiz-adv-x="757" d="M206 267v329q0 42-13.5 56.5T141 667H90v-72h42V267h74zM260 0l313 667h-76L185 0h75zm451 0v72H566l100 106q29 31 40.5 55t11.5 55q0 25-9.5 47T683 373t-38.5 25.5T597 408t-47.5-9.5T510 373t-27-37.5-10-44.5v-4q0-1 1-10h73q0 59 50 59 20 0 33.5-14.5T644 287q0-27-35-65L484 92q-18-20-18-41 0-23 16.5-37T525 0h186z"/><glyph glyph-name="threequarters" unicode="¾" horiz-adv-x="757" d="M39 558v-9h73q2 53 45 53 19 0 32-13.5t13-33.5q0-40-43-45-34-4-34-38 0-30 34-37 49-9 49-51 0-22-14.5-37.5T158 331q-16 0-29 9.5T110 366q-2 6-2.5 10.5T107 392H33q2-22 4-33t7-23q14-35 45.5-56t68.5-21q25 0 48 10t39.5 27 26.5 40 10 49q0 50-38 89 17 21 24.5 39t7.5 41q0 25-9 47t-25 38-38 25.5-47 9.5q-23 0-44.5-9t-38-24.5-26-36T39 562v-4zM259 0l313 667h-76L184 0h75zm436 0v86h32v72h-32v242h-68L470 175q-14-20-14-40 0-23 15-36t41-13h109V0h74zm-74 158h-80l80 115V158z"/><glyph glyph-name="questiondown" unicode="¿" horiz-adv-x="455" d="M179 501V382q-28-11-45.5-20.5T100 338q-33-28-51.5-66.5T30 191q0-41 16-77t43.5-63 64-43T232-8q41 0 77.5 16T373 51t42.5 63.5T431 193H325q-1-44-26.5-71T231 95q-41 0-68 27.5T136 192q0 35 19 57t63 37q26 9 36 14.5t18 16.5 10.5 22 2.5 36v126H179zm52 173q-27 0-45.5-18T165 610t17.5-47.5T231 543q27 0 46 19.5t19 45.5q0 28-19 47t-46 19z"/><glyph glyph-name="Agrave" unicode="À" horiz-adv-x="545" d="M530 0L349 610q-11 37-29 53.5T273 680q-57 0-77-69L15 0h109l35 126h225L421 0h109zM355 229H188l81 293zm-39 503l-16 148h-97l42-153z"/><glyph glyph-name="Aacute" unicode="Á" horiz-adv-x="545" d="M530 0L349 610q-11 37-29 53.5T273 680q-57 0-77-69L15 0h109l35 126h225L421 0h109zM355 229H188l81 293zM230 732l71-5 42 153h-97z"/><glyph glyph-name="Acircumflex" unicode="Â" horiz-adv-x="545" d="M530 0L349 610q-11 37-29 53.5T273 680q-57 0-77-69L15 0h109l35 126h225L421 0h109zM355 229H188l81 293zm80 547l-118 87q-23 17-44 17-23 0-50-20l-113-84 57-54 106 72 104-72z"/><glyph glyph-name="Atilde" unicode="Ã" horiz-adv-x="545" d="M530 0L349 610q-11 37-29 53.5T273 680q-57 0-77-69L15 0h109l35 126h225L421 0h109zM355 229H188l81 293zm45 627q-26-31-55-31-11 0-30 4.5T261 846q-22 8-35.5 11t-25.5 3q-21 0-42-11t-53-39l43-62q19 17 27.5 22t22.5 5 31.5-4 52.5-15q43-13 62-13 23 0 48.5 13.5T441 794z"/><glyph glyph-name="Adieresis" unicode="Ä" horiz-adv-x="545" d="M530 0L349 610q-11 37-29 53.5T273 680q-57 0-77-69L15 0h109l35 126h225L421 0h109zM355 229H188l81 293zM171 863q-26-2-42-18t-16-40q0-26 18-44t43-18 42 17 17 41q0 28-18 46t-44 16zm200 0q-26-2-42-18t-16-40q0-26 18-44t43-18 42 17 17 41q0 28-18 46t-44 16z"/><glyph glyph-name="Aring" unicode="Å" horiz-adv-x="545" d="M530 0L349 610q-11 37-29 53.5T273 680q-57 0-77-69L15 0h109l35 126h225L421 0h109zM355 229H188l81 293zm-82 669q-40 0-66-25t-28-65 25.5-67 70.5-27q19 0 35.5 7t29 19.5T359 770t7 36q0 40-26.5 66T273 898zm-2-49q18 0 31.5-13t13.5-30-12.5-29.5T271 763q-18-1-31.5 11.5T226 806t12.5 31 32.5 12z"/><glyph glyph-name="AE" unicode="Æ" horiz-adv-x="665" d="M613 0v103H414v191h182v103H414v167h199v103H338q-21 0-36.5-3t-27-11-20.5-21-17-33L-7 0h111l54 131h150v-27q0-18 .5-29.5t2.5-20 5.5-14.5 9.5-12q25-28 86-28h201zM308 231H195l113 285V231z"/><glyph glyph-name="Ccedilla" unicode="Ç" horiz-adv-x="458" d="M359 1h10l38-1h24v103h-29q-30 0-53 2t-42.5 7-36.5 12.5-34 19.5q-48 32-74.5 81.5T135 332q0 78 43.5 138T295 553q11 3 20.5 5.5t22 3.5 29 1.5 42.5.5h22v103q-44 0-73.5-1t-51.5-3.5-39-7.5-37-13q-45-19-82.5-50.5t-63.5-72T43.5 431 29 332q0-64 21.5-120t59.5-99.5 90-72T314 4v-77q30-2 43.5-11t13.5-27q0-20-15-29t-54-11v-41q29 0 42.5 1.5T372-184q22 8 35.5 28t13.5 45q0 27-16.5 47T359-36V1z"/><glyph glyph-name="Egrave" unicode="È" horiz-adv-x="432" d="M380 0v103H180v191h182v103H180v167h200v103H168q-43 0-69-23-8-7-13-13.5T78.5 615 75 593.5 74 563V100q0-56 22-78t77-22h207zM272 732l-16 148h-97l42-153z"/><glyph glyph-name="Eacute" unicode="É" horiz-adv-x="432" d="M380 0v103H180v191h182v103H180v167h200v103H168q-43 0-69-23-8-7-13-13.5T78.5 615 75 593.5 74 563V100q0-56 22-78t77-22h207zM193 732l71-5 42 153h-97z"/><glyph glyph-name="Ecircumflex" unicode="Ê" horiz-adv-x="432" d="M380 0v103H180v191h182v103H180v167h200v103H168q-43 0-69-23-8-7-13-13.5T78.5 615 75 593.5 74 563V100q0-56 22-78t77-22h207zm18 776l-118 87q-23 17-44 17-23 0-50-20L73 776l57-54 106 72 104-72z"/><glyph glyph-name="Edieresis" unicode="Ë" horiz-adv-x="432" d="M380 0v103H180v191h182v103H180v167h200v103H168q-43 0-69-23-8-7-13-13.5T78.5 615 75 593.5 74 563V100q0-56 22-78t77-22h207zm-64 863q-25 0-42.5-17.5T256 803t17.5-42.5T316 743t42.5 17.5T376 802q0 26-17 43.5T316 863zm-187 0q-25 0-42.5-17.5T69 803t17.5-42.5T129 743t42.5 17.5T189 802q0 26-17 43.5T129 863z"/><glyph glyph-name="Igrave" unicode="Ì" horiz-adv-x="254" d="M180 0v667H74V0h106zm-10 732l-16 148H57l42-153z"/><glyph glyph-name="Iacute" unicode="Í" horiz-adv-x="254" d="M180 0v667H74V0h106zM84 732l71-5 42 153h-97z"/><glyph glyph-name="Icircumflex" unicode="Î" horiz-adv-x="254" d="M180 0v667H74V0h106zm109 776l-118 87q-23 17-44 17-23 0-50-20l-113-84 57-54 106 72 104-72z"/><glyph glyph-name="Idieresis" unicode="Ï" horiz-adv-x="254" d="M180 0v667H74V0h106zm27 863q-25 0-42-17t-17-42q0-24 17.5-41.5T207 745t41.5 17.5T266 803q0 26-17 43t-42 17zm-160 0q-25 0-42-17t-17-42q0-24 17.5-41.5T47 745t41.5 17.5T106 803q0 26-17 43t-42 17z"/><glyph glyph-name="Eth" unicode="Ð" horiz-adv-x="564" d="M74 397H14v-82h60V104q0-57 25-81t85-24q65 0 115.5 15T396 62q66 48 102.5 119.5T535 335q0 81-36 151T398 604q-47 34-97.5 48.5T179 667q-59 0-82-23.5T74 561V397zm106 0v167h24q46 0 87-18t72-49 48.5-73 17.5-89q0-50-17.5-92t-49-73.5-74-49T196 103h-16v212h109v82H180z"/><glyph glyph-name="Ntilde" unicode="Ñ" horiz-adv-x="629" d="M555 667h-99V169L214 622q-15 29-30.5 41T145 675q-32 0-51.5-22.5T74 592V0h99v487L417 27q20-38 61-38 35 0 56 23t21 61v594zM442 856q-26-31-55-31-11 0-30 4.5T303 846q-22 8-35.5 11t-25.5 3q-21 0-42-11t-53-39l43-62q19 17 27.5 22t22.5 5 31.5-4 52.5-15q43-13 62-13 23 0 48.5 13.5T483 794z"/><glyph glyph-name="Ograve" unicode="Ò" horiz-adv-x="746" d="M376 680q-73 0-136-27t-110-73.5T56 470 29 335t27.5-135T131 89.5t110-75T375-13q69 0 131.5 27.5T616 89t74.5 109T718 329q0 73-26.5 137.5t-73 111.5T510 652.5 376 680zm0-103q41 0 81.5-16t72.5-44q82-74 82-186 0-48-19-92t-52-77-76-52.5T374 90q-49 0-92.5 19.5t-76 52.5-51.5 77-19 94q0 51 19 95.5t51.5 77.5 76.5 52 94 19zm54 155l-16 148h-97l42-153z"/><glyph glyph-name="Oacute" unicode="Ó" horiz-adv-x="746" d="M376 680q-73 0-136-27t-110-73.5T56 470 29 335t27.5-135T131 89.5t110-75T375-13q69 0 131.5 27.5T616 89t74.5 109T718 329q0 73-26.5 137.5t-73 111.5T510 652.5 376 680zm0-103q41 0 81.5-16t72.5-44q82-74 82-186 0-48-19-92t-52-77-76-52.5T374 90q-49 0-92.5 19.5t-76 52.5-51.5 77-19 94q0 51 19 95.5t51.5 77.5 76.5 52 94 19zm-59 155l71-5 42 153h-97z"/><glyph glyph-name="Ocircumflex" unicode="Ô" horiz-adv-x="746" d="M376 680q-73 0-136-27t-110-73.5T56 470 29 335t27.5-135T131 89.5t110-75T375-13q69 0 131.5 27.5T616 89t74.5 109T718 329q0 73-26.5 137.5t-73 111.5T510 652.5 376 680zm0-103q41 0 81.5-16t72.5-44q82-74 82-186 0-48-19-92t-52-77-76-52.5T374 90q-49 0-92.5 19.5t-76 52.5-51.5 77-19 94q0 51 19 95.5t51.5 77.5 76.5 52 94 19zm160 199l-118 87q-23 17-44 17-23 0-50-20l-113-84 57-54 106 72 104-72z"/><glyph glyph-name="Otilde" unicode="Õ" horiz-adv-x="746" d="M376 680q-73 0-136-27t-110-73.5T56 470 29 335t27.5-135T131 89.5t110-75T375-13q69 0 131.5 27.5T616 89t74.5 109T718 329q0 73-26.5 137.5t-73 111.5T510 652.5 376 680zm0-103q41 0 81.5-16t72.5-44q82-74 82-186 0-48-19-92t-52-77-76-52.5T374 90q-49 0-92.5 19.5t-76 52.5-51.5 77-19 94q0 51 19 95.5t51.5 77.5 76.5 52 94 19zm124 279q-26-31-55-31-11 0-30 4.5T361 846q-22 8-35.5 11t-25.5 3q-21 0-42-11t-53-39l43-62q19 17 27.5 22t22.5 5 31.5-4 52.5-15q43-13 62-13 23 0 48.5 13.5T541 794z"/><glyph glyph-name="Odieresis" unicode="Ö" horiz-adv-x="746" d="M376 680q-73 0-136-27t-110-73.5T56 470 29 335t27.5-135T131 89.5t110-75T375-13q69 0 131.5 27.5T616 89t74.5 109T718 329q0 73-26.5 137.5t-73 111.5T510 652.5 376 680zm0-103q41 0 81.5-16t72.5-44q82-74 82-186 0-48-19-92t-52-77-76-52.5T374 90q-49 0-92.5 19.5t-76 52.5-51.5 77-19 94q0 51 19 95.5t51.5 77.5 76.5 52 94 19zM271 863q-26-2-42-18t-16-40q0-26 18-44t43-18 42 17 17 41q0 28-18 46t-44 16zm200 0q-26-2-42-18t-16-40q0-26 18-44t43-18 42 17 17 41q0 28-18 46t-44 16z"/><glyph glyph-name="multiply" unicode="×" horiz-adv-x="494" d="M247 406l-96 97-73-73 96-97-96-96 73-73 96 96 96-96 73 73-96 96 96 96-73 74z"/><glyph glyph-name="Oslash" unicode="Ø" horiz-adv-x="746" d="M29 49l57-59 74 74q53-39 105.5-58T375-13q70 0 132.5 27.5t109 74.5 74 110T718 333q0 117-72 214l72 71-58 58-72-71q-51 38-103 56.5T373 680q-72 0-134.5-27t-109-74T56 469.5 29 335q0-60 18-112.5T102 121zm148 147q-42 64-42 138 0 49 19 93.5t51.5 77.5 75.5 52.5 92 19.5q38 0 71.5-11t68.5-35zm393 276q22-35 32-67.5t10-69.5q0-50-19-94.5t-51.5-78-75.5-53T374 90q-38 0-71.5 11.5T234 137z"/><glyph glyph-name="Ugrave" unicode="Ù" horiz-adv-x="612" d="M547 667H441V252q0-40-5-61t-19-43q-19-27-49-43t-63-16q-34 0-64 16.5T193 151q-12 20-17 42t-5 57v417H65V241q0-48 9-81.5T104 95q34-51 88-80t113-29q54 0 103.5 24T493 76q15 19 25.5 37.5t16.5 39 9 45 3 54.5v415zm-193 65l-16 148h-97l42-153z"/><glyph glyph-name="Uacute" unicode="Ú" horiz-adv-x="612" d="M547 667H441V252q0-40-5-61t-19-43q-19-27-49-43t-63-16q-34 0-64 16.5T193 151q-12 20-17 42t-5 57v417H65V241q0-48 9-81.5T104 95q34-51 88-80t113-29q54 0 103.5 24T493 76q15 19 25.5 37.5t16.5 39 9 45 3 54.5v415zm-291 65l71-5 42 153h-97z"/><glyph glyph-name="Ucircumflex" unicode="Û" horiz-adv-x="612" d="M547 667H441V252q0-40-5-61t-19-43q-19-27-49-43t-63-16q-34 0-64 16.5T193 151q-12 20-17 42t-5 57v417H65V241q0-48 9-81.5T104 95q34-51 88-80t113-29q54 0 103.5 24T493 76q15 19 25.5 37.5t16.5 39 9 45 3 54.5v415zm-79 109l-118 87q-23 17-44 17-23 0-50-20l-113-84 57-54 106 72 104-72z"/><glyph glyph-name="Udieresis" unicode="Ü" horiz-adv-x="612" d="M547 667H441V252q0-40-5-61t-19-43q-19-27-49-43t-63-16q-34 0-64 16.5T193 151q-12 20-17 42t-5 57v417H65V241q0-48 9-81.5T104 95q34-51 88-80t113-29q54 0 103.5 24T493 76q15 19 25.5 37.5t16.5 39 9 45 3 54.5v415zM204 863q-26-2-42-18t-16-40q0-26 18-44t43-18 42 17 17 41q0 28-18 46t-44 16zm200 0q-26-2-42-18t-16-40q0-26 18-44t43-18 42 17 17 41q0 28-18 46t-44 16z"/><glyph glyph-name="Yacute" unicode="Ý" horiz-adv-x="466" d="M291 0v292l171 375H353L237 410 113 667H3l182-375V0h106zM183 732l71-5 42 153h-97z"/><glyph glyph-name="Thorn" unicode="Þ" horiz-adv-x="439" d="M180 0v186h22q47 0 87 15t69 42 45 64 16 81q0 41-16 78t-46 66q-32 30-67.5 42.5T200 587h-20v80H74V0h106zm0 289v195q8 1 14 1h10q52 0 80.5-25.5T313 388q0-56-40-82-15-10-29-13.5t-43-3.5h-21z"/><glyph glyph-name="germandbls" unicode="ß" horiz-adv-x="516" d="M155 0v473q0 102 74 102 32 0 53-20t21-51q0-22-12-39.5T259 439q-6-3-11.5-4.5T235 432t-17-1.5-26-.5v-94q44 0 67-.5t34-2.5q44-7 71.5-40t27.5-79q0-26-9.5-48.5T357 126t-38-26.5-47-9.5q-20 0-36.5 5.5T192 117V10q26-9 43.5-12.5T273-6q44 0 83.5 17.5t69 47.5 47 69.5T490 213q0 71-39.5 124.5T345 409q51 42 51 108 0 32-13 59.5T347.5 624 294 655.5 226 667q-38 0-71-12.5T99 619t-32.5-55.5T57 476V0h98z"/><glyph glyph-name="agrave" unicode="à" horiz-adv-x="508" d="M465 0v173q0 32-1.5 55.5t-5.5 42-10.5 33.5-16.5 31q-29 45-78.5 71.5T248 433q-45 0-85.5-17.5T92 368t-47.5-70T27 213t17.5-84.5T91 59t68-47.5T242-6q66 0 125 45V0h98zM250 337q26 0 48-9.5t38.5-27T362 260t9-50q0-26-9.5-47.5t-26-38-39-25.5-47.5-9q-26 0-49 9.5t-39.5 26-26 39T125 213t9.5 49 26.5 39.5 40 26 49 9.5zm60 141l-16 148h-94l42-153z"/><glyph glyph-name="aacute" unicode="á" horiz-adv-x="508" d="M465 0v173q0 32-1.5 55.5t-5.5 42-10.5 33.5-16.5 31q-29 45-78.5 71.5T248 433q-45 0-85.5-17.5T92 368t-47.5-70T27 213t17.5-84.5T91 59t68-47.5T242-6q66 0 125 45V0h98zM250 337q26 0 48-9.5t38.5-27T362 260t9-50q0-26-9.5-47.5t-26-38-39-25.5-47.5-9q-26 0-49 9.5t-39.5 26-26 39T125 213t9.5 49 26.5 39.5 40 26 49 9.5zm-50 141l68-5 42 153h-94z"/><glyph glyph-name="acircumflex" unicode="â" horiz-adv-x="508" d="M465 0v173q0 32-1.5 55.5t-5.5 42-10.5 33.5-16.5 31q-29 45-78.5 71.5T248 433q-45 0-85.5-17.5T92 368t-47.5-70T27 213t17.5-84.5T91 59t68-47.5T242-6q66 0 125 45V0h98zM250 337q26 0 48-9.5t38.5-27T362 260t9-50q0-26-9.5-47.5t-26-38-39-25.5-47.5-9q-26 0-49 9.5t-39.5 26-26 39T125 213t9.5 49 26.5 39.5 40 26 49 9.5zm153 193l-105 77q-13 9-22.5 13t-20.5 4q-12 0-23-4.5T207 604l-100-74 56-53 92 63 91-63z"/><glyph glyph-name="atilde" unicode="ã" horiz-adv-x="508" d="M465 0v173q0 32-1.5 55.5t-5.5 42-10.5 33.5-16.5 31q-29 45-78.5 71.5T248 433q-45 0-85.5-17.5T92 368t-47.5-70T27 213t17.5-84.5T91 59t68-47.5T242-6q66 0 125 45V0h98zM250 337q26 0 48-9.5t38.5-27T362 260t9-50q0-26-9.5-47.5t-26-38-39-25.5-47.5-9q-26 0-49 9.5t-39.5 26-26 39T125 213t9.5 49 26.5 39.5 40 26 49 9.5zm126 268q-26-30-52-30-11 0-28.5 4.5T244 595q-21 8-34.5 10.5T185 608q-20 0-40-11t-50-38l41-59q19 17 26.5 21.5T183 526q14 0 31-3.5t49-14.5q40-13 60-13 21 0 45.5 13t46.5 36z"/><glyph glyph-name="adieresis" unicode="ä" horiz-adv-x="508" d="M465 0v173q0 32-1.5 55.5t-5.5 42-10.5 33.5-16.5 31q-29 45-78.5 71.5T248 433q-45 0-85.5-17.5T92 368t-47.5-70T27 213t17.5-84.5T91 59t68-47.5T242-6q66 0 125 45V0h98zM250 337q26 0 48-9.5t38.5-27T362 260t9-50q0-26-9.5-47.5t-26-38-39-25.5-47.5-9q-26 0-49 9.5t-39.5 26-26 39T125 213t9.5 49 26.5 39.5 40 26 49 9.5zm83 273q-25-2-40.5-17.5T277 553t17.5-41.5T336 494t40.5 16.5T393 550q0 26-17.5 44T333 610zm-176-1q-23 0-40-17.5T100 550t16-40.5 40-16.5 42 17 18 40q0 25-17 42t-42 17z"/><glyph glyph-name="aring" unicode="å" horiz-adv-x="508" d="M465 0v173q0 32-1.5 55.5t-5.5 42-10.5 33.5-16.5 31q-29 45-78.5 71.5T248 433q-45 0-85.5-17.5T92 368t-47.5-70T27 213t17.5-84.5T91 59t68-47.5T242-6q66 0 125 45V0h98zM250 337q26 0 48-9.5t38.5-27T362 260t9-50q0-26-9.5-47.5t-26-38-39-25.5-47.5-9q-26 0-49 9.5t-39.5 26-26 39T125 213t9.5 49 26.5 39.5 40 26 49 9.5zm1 312q-38 0-64.5-26.5T160 558t26.5-64.5T251 467t64.5 26.5T342 557q0 39-26.5 65.5T251 649zm0-47q19 0 31.5-12.5T295 558q0-18-13-31t-31-13-31 13-13 31 13 31 31 13z"/><glyph glyph-name="ae" unicode="æ" horiz-adv-x="827" d="M688 139q-35-49-97-49-41 0-72.5 22T475 171h217q34 0 49 2.5t28 10.5q15 10 24 27.5t9 37.5q0 27-14 57.5T751 363q-32 34-73 52t-87 18q-35 0-64-9t-60-29v32h-97v-35q-34 22-63.5 31.5T243 433q-44 0-83-17.5T91.5 368t-47-69.5T27 214t17-85 47-70 69.5-47.5T245-6q68 0 125 39V0h97v31q35-21 61.5-29T588-6q86 0 147 55 47 42 61 90H688zM475 259q37 78 115 78 76 0 115-78H475zm-226 78q25 0 47.5-9.5t39-26.5 26-40 9.5-49q0-25-9.5-47.5t-26.5-39-39.5-26T248 90q-26 0-48.5 9.5t-39 26-26 39.5-9.5 49 9.5 48.5 26 39 39.5 26 49 9.5z"/><glyph glyph-name="ccedilla" unicode="ç" horiz-adv-x="344" d="M263 0h60v95h-32q-21 0-36 .5T228.5 98t-21 5-19.5 8q-29 13-46 41t-17 60q0 40 23 71t61 41q9 3 18.5 4.5T250 331t30 1h43v95h-43q-25 0-43-.5t-32-2.5-26-5.5-25-9.5q-58-24-92.5-78T27 211q0-50 21.5-93.5T111 42q25-19 48.5-27.5T219 1v-72q29-2 42-11t13-26q0-20-14-28.5T208-147v-40q27 0 40.5 1.5T275-179q22 8 35 27.5t13 43.5q0 26-16 45.5T263-35V0z"/><glyph glyph-name="egrave" unicode="è" horiz-adv-x="483" d="M346 138q-39-48-98-48-41 0-72 22t-45 60h218q36 0 51 3t29 14q28 22 28 60 0 27-14.5 58.5T404 365q-32 33-72 50.5T245 433q-45 0-84.5-17T91 369t-47-70-17-85 17.5-85T92 59t69.5-47.5T246-6q34 0 66 10.5t59 29 47 45 32 59.5H346zM133 259q15 37 45.5 57.5T248 337t70-21.5 43-56.5H133zm164 219l-16 148h-94l42-153z"/><glyph glyph-name="eacute" unicode="é" horiz-adv-x="483" d="M346 138q-39-48-98-48-41 0-72 22t-45 60h218q36 0 51 3t29 14q28 22 28 60 0 27-14.5 58.5T404 365q-32 33-72 50.5T245 433q-45 0-84.5-17T91 369t-47-70-17-85 17.5-85T92 59t69.5-47.5T246-6q34 0 66 10.5t59 29 47 45 32 59.5H346zM133 259q15 37 45.5 57.5T248 337t70-21.5 43-56.5H133zm68 219l68-5 42 153h-94z"/><glyph glyph-name="ecircumflex" unicode="ê" horiz-adv-x="483" d="M346 138q-39-48-98-48-41 0-72 22t-45 60h218q36 0 51 3t29 14q28 22 28 60 0 27-14.5 58.5T404 365q-32 33-72 50.5T245 433q-45 0-84.5-17T91 369t-47-70-17-85 17.5-85T92 59t69.5-47.5T246-6q34 0 66 10.5t59 29 47 45 32 59.5H346zM133 259q15 37 45.5 57.5T248 337t70-21.5 43-56.5H133zm257 271l-105 77q-13 9-22.5 13t-20.5 4q-12 0-23-4.5T194 604L94 530l56-53 92 63 91-63z"/><glyph glyph-name="edieresis" unicode="ë" horiz-adv-x="483" d="M346 138q-39-48-98-48-41 0-72 22t-45 60h218q36 0 51 3t29 14q28 22 28 60 0 27-14.5 58.5T404 365q-32 33-72 50.5T245 433q-45 0-84.5-17T91 369t-47-70-17-85 17.5-85T92 59t69.5-47.5T246-6q34 0 66 10.5t59 29 47 45 32 59.5H346zM133 259q15 37 45.5 57.5T248 337t70-21.5 43-56.5H133zm195 351q-25-2-40.5-17.5T272 553t17.5-41.5T331 494t40.5 16.5T388 550q0 26-17.5 44T328 610zm-176-1q-23 0-40-17.5T95 550t16-40.5 40-16.5 42 17 18 40q0 25-17 42t-42 17z"/><glyph glyph-name="igrave" unicode="ì" horiz-adv-x="211" d="M155 0v427H57V0h98zm-7 478l-16 148H38l42-153z"/><glyph glyph-name="iacute" unicode="í" horiz-adv-x="211" d="M155 0v427H57V0h98zM65 478l68-5 42 153H81z"/><glyph glyph-name="icircumflex" unicode="î" horiz-adv-x="211" d="M155 0v427H57V0h98zm99 530l-105 77q-13 9-22.5 13t-20.5 4q-12 0-23-4.5T58 604l-100-74 56-53 92 63 91-63z"/><glyph glyph-name="idieresis" unicode="ï" horiz-adv-x="211" d="M155 0v427H57V0h98zm24 605q-22-1-36-15.5T129 554q0-23 15.5-38.5T183 500q21 0 36 15t15 36q0 24-16 40t-39 14zm-150-1q-21 0-36-15.5T-22 550q0-22 14.5-36.5T29 499t38 15.5T83 551q0 23-15.5 38T29 604z"/><glyph glyph-name="eth" unicode="ð" horiz-adv-x="496" d="M363 625l-32 43-70-36-14 13q-5 6-11 11.5T224 667l-5 5-7 5-56-36q12-11 19-19t22-25l-65-33 32-43 66 34q48-52 88-136-20 8-36 11t-36 3q-45 0-84.5-17.5T92 368t-47.5-70T27 213t17.5-85T92 58t70-47 85-17q76 0 137 46 86 62 86 195 0 40-10 77.5T427 399q-13 27-26 50t-28 45-33.5 45.5T297 590zM249 337q25 0 47.5-10t39.5-27 26.5-39.5T372 212q0-25-10-47t-26.5-38.5T296 100t-48-10q-26 0-48 9.5T161 126t-26.5 39-9.5 48 10 48.5 26.5 39.5 39 26.5T249 337z"/><glyph glyph-name="ntilde" unicode="ñ" horiz-adv-x="464" d="M412 0v235q0 49-8.5 78T372 369q-26 31-62 47.5T232 433t-78.5-17T92 367q-21-26-30.5-55T52 242V0h98v214q0 36 3.5 54.5T166 302q10 16 28.5 25.5T233 337t38-10 27-26 12.5-36.5T314 207V0h98zm-59 605q-26-30-52-30-11 0-28.5 4.5T221 595q-21 8-34.5 10.5T162 608q-20 0-40-11t-50-38l41-59q19 17 26.5 21.5T160 526q14 0 31-3.5t49-14.5q40-13 60-13 21 0 45.5 13t46.5 36z"/><glyph glyph-name="ograve" unicode="ò" horiz-adv-x="496" d="M249 433q-46 0-86.5-17T92 369t-47.5-70.5T27 212q0-45 17.5-84.5T92 58t70-47 85-17q46 0 86.5 17t71 46 48 68 17.5 83q0 47-17 88t-47 71.5-70.5 48T249 433zm0-96q25 0 47.5-10t39.5-27 26.5-39.5T372 212q0-25-10-47t-26.5-38.5T296 100t-48-10q-26 0-48 9.5T161 126t-26.5 39-9.5 48 10 48.5 26.5 39.5 39 26.5T249 337zm55 141l-16 148h-94l42-153z"/><glyph glyph-name="oacute" unicode="ó" horiz-adv-x="496" d="M249 433q-46 0-86.5-17T92 369t-47.5-70.5T27 212q0-45 17.5-84.5T92 58t70-47 85-17q46 0 86.5 17t71 46 48 68 17.5 83q0 47-17 88t-47 71.5-70.5 48T249 433zm0-96q25 0 47.5-10t39.5-27 26.5-39.5T372 212q0-25-10-47t-26.5-38.5T296 100t-48-10q-26 0-48 9.5T161 126t-26.5 39-9.5 48 10 48.5 26.5 39.5 39 26.5T249 337zm-55 141l68-5 42 153h-94z"/><glyph glyph-name="ocircumflex" unicode="ô" horiz-adv-x="496" d="M249 433q-46 0-86.5-17T92 369t-47.5-70.5T27 212q0-45 17.5-84.5T92 58t70-47 85-17q46 0 86.5 17t71 46 48 68 17.5 83q0 47-17 88t-47 71.5-70.5 48T249 433zm0-96q25 0 47.5-10t39.5-27 26.5-39.5T372 212q0-25-10-47t-26.5-38.5T296 100t-48-10q-26 0-48 9.5T161 126t-26.5 39-9.5 48 10 48.5 26.5 39.5 39 26.5T249 337zm148 193l-105 77q-13 9-22.5 13t-20.5 4q-12 0-23-4.5T201 604l-100-74 56-53 92 63 91-63z"/><glyph glyph-name="otilde" unicode="õ" horiz-adv-x="496" d="M249 433q-46 0-86.5-17T92 369t-47.5-70.5T27 212q0-45 17.5-84.5T92 58t70-47 85-17q46 0 86.5 17t71 46 48 68 17.5 83q0 47-17 88t-47 71.5-70.5 48T249 433zm0-96q25 0 47.5-10t39.5-27 26.5-39.5T372 212q0-25-10-47t-26.5-38.5T296 100t-48-10q-26 0-48 9.5T161 126t-26.5 39-9.5 48 10 48.5 26.5 39.5 39 26.5T249 337zm121 268q-26-30-52-30-11 0-28.5 4.5T238 595q-21 8-34.5 10.5T179 608q-20 0-40-11t-50-38l41-59q19 17 26.5 21.5T177 526q14 0 31-3.5t49-14.5q40-13 60-13 21 0 45.5 13t46.5 36z"/><glyph glyph-name="odieresis" unicode="ö" horiz-adv-x="496" d="M249 433q-46 0-86.5-17T92 369t-47.5-70.5T27 212q0-45 17.5-84.5T92 58t70-47 85-17q46 0 86.5 17t71 46 48 68 17.5 83q0 47-17 88t-47 71.5-70.5 48T249 433zm0-96q25 0 47.5-10t39.5-27 26.5-39.5T372 212q0-25-10-47t-26.5-38.5T296 100t-48-10q-26 0-48 9.5T161 126t-26.5 39-9.5 48 10 48.5 26.5 39.5 39 26.5T249 337zm86 273q-25-2-40.5-17.5T279 553t17.5-41.5T338 494t40.5 16.5T395 550q0 26-17.5 44T335 610zm-176-1q-23 0-40-17.5T102 550t16-40.5 40-16.5 42 17 18 40q0 25-17 42t-42 17z"/><glyph glyph-name="divide" unicode="÷" horiz-adv-x="494" d="M402 385H93V282h309v103zM247 232q-27 0-46-19t-19-46 19-46 46-19q26 0 45.5 19t19.5 45q0 28-18.5 47T247 232zm0 333q-27 0-46-19t-19-46 19-46 46-19q26 0 45.5 19t19.5 45q0 28-18.5 47T247 565z"/><glyph glyph-name="oslash" unicode="ø" horiz-adv-x="496" d="M26 45L77-7l42 42q34-23 63.5-32T248-6q46 0 86.5 17T405 57.5t47.5 69.5 17.5 86q0 35-10 66t-33 63l43 43-52 52-44-44q-31 21-61 30.5t-65 9.5q-46 0-86-17.5T92 368t-47.5-70T27 212q0-33 9.5-63T67 87zm112 112q-8 17-10.5 29t-2.5 27q0 25 10 48t26.5 39.5 39 26.5 48.5 10q14 0 26-3t29-11zm219 115q8-17 11.5-29t3.5-29q0-26-9.5-48.5T336 126t-40-26.5-49-9.5q-15 0-27.5 3T189 105z"/><glyph glyph-name="ugrave" unicode="ù" horiz-adv-x="464" d="M52 427V192q0-49 8.5-78T92 58q26-31 62-47.5T232-6t78.5 17T372 60q21 26 30.5 55t9.5 70v242h-98V213q0-36-3.5-54.5T298 125q-10-16-28.5-25.5T231 90t-38 10-27 26-12.5 36.5T150 220v207H52zm235 51l-16 148h-94l42-153z"/><glyph glyph-name="uacute" unicode="ú" horiz-adv-x="464" d="M52 427V192q0-49 8.5-78T92 58q26-31 62-47.5T232-6t78.5 17T372 60q21 26 30.5 55t9.5 70v242h-98V213q0-36-3.5-54.5T298 125q-10-16-28.5-25.5T231 90t-38 10-27 26-12.5 36.5T150 220v207H52zm125 51l68-5 42 153h-94z"/><glyph glyph-name="ucircumflex" unicode="û" horiz-adv-x="464" d="M52 427V192q0-49 8.5-78T92 58q26-31 62-47.5T232-6t78.5 17T372 60q21 26 30.5 55t9.5 70v242h-98V213q0-36-3.5-54.5T298 125q-10-16-28.5-25.5T231 90t-38 10-27 26-12.5 36.5T150 220v207H52zm328 103l-105 77q-13 9-22.5 13t-20.5 4q-12 0-23-4.5T184 604L84 530l56-53 92 63 91-63z"/><glyph glyph-name="udieresis" unicode="ü" horiz-adv-x="464" d="M52 427V192q0-49 8.5-78T92 58q26-31 62-47.5T232-6t78.5 17T372 60q21 26 30.5 55t9.5 70v242h-98V213q0-36-3.5-54.5T298 125q-10-16-28.5-25.5T231 90t-38 10-27 26-12.5 36.5T150 220v207H52zm267 183q-25-2-40.5-17.5T263 553t17.5-41.5T322 494t40.5 16.5T379 550q0 26-17.5 44T319 610zm-176-1q-23 0-40-17.5T86 550t16-40.5 40-16.5 42 17 18 40q0 25-17 42t-42 17z"/><glyph glyph-name="yacute" unicode="ý" horiz-adv-x="477" d="M421 427h-98V192q0-48-21.5-75T241 90q-40 0-61.5 27.5T158 196v231H60V200q0-82 33-130 26-36 64-56t83-20q25 0 43.5 5T325 17v-55q0-22-3.5-39.5T313-105q-11-20-32-32t-45-12q-39 0-62 24.5T149-55H52v-11q0-36 14.5-68.5t40-57 59-38.5 71.5-14q86 0 143 69 41 50 41 140v462zm-237 51l68-5 42 153h-94z"/><glyph glyph-name="thorn" unicode="þ" horiz-adv-x="508" d="M43 667v-906h98V39Q199-6 266-6q43 0 82.5 17.5T417 59t46.5 69.5T481 213q0 43-17.5 83t-47 70.5T349 415t-80 18q-68 0-128-48v282H43zm220-330q25 0 47.5-10t39-27 26-39.5T385 212q0-25-10-47t-26.5-38.5-39-26.5T262 90q-26 0-48 9.5T175 126t-26.5 39-9.5 48 9.5 48.5T175 301t39.5 26.5T263 337z"/><glyph glyph-name="ydieresis" unicode="ÿ" horiz-adv-x="477" d="M421 427h-98V192q0-48-21.5-75T241 90q-40 0-61.5 27.5T158 196v231H60V200q0-82 33-130 26-36 64-56t83-20q25 0 43.5 5T325 17v-55q0-22-3.5-39.5T313-105q-11-20-32-32t-45-12q-39 0-62 24.5T149-55H52v-11q0-36 14.5-68.5t40-57 59-38.5 71.5-14q86 0 143 69 41 50 41 140v462zm-96 183q-25-2-40.5-17.5T269 553t17.5-41.5T328 494t40.5 16.5T385 550q0 26-17.5 44T325 610zm-176-1q-23 0-40-17.5T92 550t16-40.5 40-16.5 42 17 18 40q0 25-17 42t-42 17z"/><glyph glyph-name="OE" unicode="Œ" horiz-adv-x="959" d="M908 0v103H706v191h184v103H706v167h202v103H706q-53 0-75.5-16.5T602 591q-48 43-107 66t-122 23q-71 0-133.5-27.5T130 578 56 468 29 333q0-71 27.5-134t74-110 109-74.5T373-13q33 0 66.5 7t64 19 56 29T602 79q5-20 6.5-27.5T615 36q11-20 30.5-28T700 0h208zM377 577q49 0 92.5-19.5t76-53 51-78.5 18.5-96q0-48-19.5-91.5T543 162t-77-52.5T374 90q-49 0-92.5 19.5t-76 53-51.5 78-19 94.5q0 51 19 95t51.5 77 76.5 51.5 95 18.5z"/><glyph glyph-name="oe" unicode="œ" horiz-adv-x="822" d="M684 138q-39-48-98-48-40 0-71.5 22T470 172h218q36 0 51 3t29 14q28 22 28 60 0 27-14.5 58.5T743 365q-32 33-72.5 50.5T584 433q-51 0-89-17.5T417 356q-70 77-170 77-45 0-85-17.5T92 368t-47.5-70T27 213t17.5-85T92 58t70-47 85-17q100 0 171 77 38-40 78.5-58.5T584-6q34 0 66 10.5t59 29 47.5 45T789 138H684zM249 337q25 0 47.5-10t39.5-27 26.5-39.5T372 212q0-25-10-47t-26.5-38.5T296 100t-48-10q-26 0-48 9.5T161 126t-26.5 39-9.5 48 10 48.5 26.5 39.5 39 26.5T249 337zm222-78q15 37 46 57.5t69 20.5q39 0 70-21.5t43-56.5H471z"/><glyph glyph-name="Scaron" unicode="Š" horiz-adv-x="459" d="M382 658q-32 10-68 15.5t-69 5.5q-49 0-89.5-15t-70-42.5-46-65T23 474q0-38 13.5-72.5T75 344q10-10 22.5-18t29-15 38-14 50.5-14q39-10 56-16t29-14q31-19 31-63 0-47-37-75.5T197 86q-32 0-70 10.5T32 131V19Q85 2 126-6t78-8q51 0 94 15.5t73.5 43 48 66T437 195q0 144-179 187-30 7-46 11t-25.5 7-14.5 6-12 8q-16 10-24.5 27t-8.5 37q0 45 35 73.5t90 28.5q13 0 24-1t25-4.5 33-9.5 48-16v109zM67 826l118-87q23-17 44-17 23 0 50 20l113 84-57 54-105-72-105 72z"/><glyph glyph-name="scaron" unicode="š" horiz-adv-x="363" d="M303 416q-34 11-59 15.5t-53 4.5q-34 0-62.5-10t-49-28-32-43T36 300q0-49 29.5-79t95.5-48q23-6 37-11.5t22-10.5 10.5-12 2.5-16q0-20-16.5-31.5T170 80q-53 0-129 36V16Q76 3 106-3t62-6q36 0 65.5 10T284 30t32.5 44.5T328 132q0 26-9.5 48.5T292 219q-11 11-28 19.5T219 255q-20 6-31 9t-17 5-10 3.5-9 3.5q-21 9-21 28 0 21 17.5 33t47.5 12q26 0 54-8t53-23v98zM34 571l105-77q23-17 42-17 23 0 49 19l100 75-56 53-92-64-91 64z"/><glyph glyph-name="Ydieresis" unicode="Ÿ" horiz-adv-x="466" d="M291 0v292l171 375H353L237 410 113 667H3l182-375V0h106zm41 863q-25 0-42.5-17.5T272 803t17.5-42.5T332 743t42.5 17.5T392 802q0 26-17 43.5T332 863zm-200 0q-25 0-42.5-17.5T72 803t17.5-42.5T132 743t42.5 17.5T192 802q0 26-17 43.5T132 863z"/><glyph glyph-name="florin" unicode="ƒ" horiz-adv-x="338" d="M346 447H242l17 94q5 31 12 51.5t17 33 24 17.5 34 5q8 0 17.5-.5T391 645l13 71q-26 3-42.5 4t-30.5 1q-83 0-123-43-10-10-17.5-21.5T177 630t-10.5-36-9.5-49l-18-98H39l-11-63h100L46-80h102l82 464h106z"/><glyph glyph-name="circumflex" unicode="ˆ" d="M398 530l-105 77q-13 9-22.5 13t-20.5 4q-12 0-23-4.5T202 604l-100-74 56-53 92 63 91-63z"/><glyph glyph-name="tilde" unicode="˜" d="M371 605q-26-30-52-30-11 0-28.5 4.5T239 595q-21 8-34.5 10.5T180 608q-20 0-40-11t-50-38l41-59q19 17 26.5 21.5T178 526q14 0 31-3.5t49-14.5q40-13 60-13 21 0 45.5 13t46.5 36z"/><glyph glyph-name="endash" unicode="–" horiz-adv-x="460" d="M410 177v74H50v-74h360z"/><glyph glyph-name="emdash" unicode="—" horiz-adv-x="520" d="M520 177v74H0v-74h520z"/><glyph glyph-name="quoteleft" unicode="‘" horiz-adv-x="227" d="M130 679l-62-94q-8-13-13-27.5T50 531q0-24 19-41.5t45-17.5 44.5 18 18.5 44q0 21-11.5 37.5T135 593l24 86h-29z"/><glyph glyph-name="quoteright" unicode="’" horiz-adv-x="227" d="M96 472l62 95q9 13 14 27.5t5 26.5q0 24-19 41.5T113 680t-44.5-18T50 618q0-21 11.5-37.5T92 559l-25-87h29z"/><glyph glyph-name="quotesinglbase" unicode="‚" horiz-adv-x="227" d="M96-87l62 95q9 13 14 27.5t5 26.5q0 24-19 41.5T113 121t-44.5-18T50 59q0-21 11.5-37.5T92 0L67-87h29z"/><glyph glyph-name="quotedblleft" unicode="“" horiz-adv-x="387" d="M290 679l-62-94q-8-13-13-27.5t-5-26.5q0-24 19-41.5t45-17.5 44.5 18 18.5 44q0 21-11.5 37.5T295 593l24 86h-29zm-160 0l-62-94q-8-13-13-27.5T50 531q0-24 19-41.5t45-17.5 44.5 18 18.5 44q0 21-11.5 37.5T135 593l24 86h-29z"/><glyph glyph-name="quotedblright" unicode="”" horiz-adv-x="387" d="M96 472l62 95q9 13 14 27.5t5 26.5q0 24-19 41.5T113 680t-44.5-18T50 618q0-21 11.5-37.5T92 559l-25-87h29zm160 0l62 95q9 13 14 27.5t5 26.5q0 24-19 41.5T273 680t-44.5-18-18.5-44q0-21 11.5-37.5T252 559l-25-87h29z"/><glyph glyph-name="quotedblbase" unicode="„" horiz-adv-x="387" d="M96-87l62 95q9 13 14 27.5t5 26.5q0 24-19 41.5T113 121t-44.5-18T50 59q0-21 11.5-37.5T92 0L67-87h29zm160 0l62 95q9 13 14 27.5t5 26.5q0 24-19 41.5T273 121t-44.5-18T210 59q0-21 11.5-37.5T252 0l-25-87h29z"/><glyph glyph-name="dagger" unicode="†" horiz-adv-x="447" d="M272 430h142v91H272v146h-98V521H33v-91h141V0h98v430z"/><glyph glyph-name="daggerdbl" unicode="‡" horiz-adv-x="447" d="M272 430h142v91H272v146h-98V521H33v-91h141V236H33v-91h141V0h98v145h142v91H272v194z"/><glyph glyph-name="bullet" unicode="•" horiz-adv-x="667" d="M336 477q-29 0-54.5-11T237 436.5t-30-44-11-54.5 11-54 29.5-43.5 44-29.5 54.5-11q28 0 53.5 11t44 29.5 29.5 44 11 54.5q0 28-11 53t-29.5 44-43.5 30-53 11z"/><glyph glyph-name="ellipsis" unicode="…" horiz-adv-x="712" d="M118 124q-26 0-45.5-19.5T53 59q0-28 19-47t46-19q28 0 47 19t19 45q0 29-18.5 48T118 124zm237 0q-26 0-45.5-19.5T290 59q0-28 19-47t46-19q28 0 47 19t19 45q0 29-18.5 48T355 124zm237 0q-26 0-45.5-19.5T527 59q0-28 19-47t46-19q28 0 47 19t19 45q0 29-18.5 48T592 124z"/><glyph glyph-name="perthousand" unicode="‰" horiz-adv-x="1136" d="M41 415q0-56 22-90 19-30 52.5-47.5T187 260q34 0 64.5 13.5T303 313q17 19 23 41.5t6 60.5v92q0 22-1 37.5t-3.5 27.5-6.5 21-11 19q-19 30-52 46.5T187 675q-69 0-113-49-18-20-25.5-46.5T41 510v-95zm216-11q0-36-18-55.5T187 329q-32 0-51.5 20.5T116 402v119q0 85 70 85 71 0 71-84V404zM282 0l313 667h-76L207 0h75zm188 148q0-56 22-90 20-30 52.5-47.5T615-7q34 0 64.5 13.5T731 46q17 19 23 41.5t6 60.5v92q0 44-4.5 65T738 346q-19 29-52 45.5T615 408q-68 0-112-49-18-20-25.5-46.5T470 243v-95zm215-11q0-36-18-55.5T616 62q-32 0-51.5 20.5T545 135v120q0 84 70 84t70-84V137zm118 11q0-56 22-90 20-30 53-47.5T949-7q34 0 64.5 13.5T1065 46q17 19 23 41.5t6 60.5v92q0 44-4.5 65t-17.5 41q-20 29-52.5 45.5T949 408q-69 0-113-49-18-20-25.5-46.5T803 243v-95zm216-11q0-36-18-55.5T949 62q-32 0-51.5 20.5T878 135v120q0 84 70 84 71 0 71-84V137z"/><glyph glyph-name="guilsinglleft" unicode="‹" horiz-adv-x="274" d="M160 406L20 217 163 25l71 55-101 137 101 136z"/><glyph glyph-name="guilsinglright" unicode="›" horiz-adv-x="274" d="M114 25l140 188-143 193-71-55 101-138L40 77z"/><glyph glyph-name="trademark" unicode="™" horiz-adv-x="633" d="M217 598v69H0v-69h73V287h71v311h73zm381-311v325q0 27-12.5 42.5T550 670q-35 0-48-40l-78-228-75 221q-15 48-50 48-47 0-47-60V287h67v222l64-191q11-34 40-34t42 37l66 193V287h67z"/><glyph glyph-name="periodcentered" horiz-adv-x="250" d="M125 280q-26 0-45.5-19.5T60 215q0-28 19-47t46-19q28 0 47 19t19 45q0 29-18.5 48T125 280z"/><glyph glyph-name="sfthyphen" horiz-adv-x="174" d="M174 177v74H0v-74h174z"/><glyph glyph-name="minus" horiz-adv-x="494" d="M402 385H93V282h309v103z"/><glyph glyph-name="nonbreakingspace" horiz-adv-x="250"/></font>
</defs>
</svg>
